<?xml version="1.0" encoding="utf-8"?>
<!-- Generator: Adobe Illustrator 16.0.0, SVG Export Plug-In . SVG Version: 6.00 Build 0)  -->
<!DOCTYPE svg PUBLIC "-//W3C//DTD SVG 1.1//EN" "http://www.w3.org/Graphics/SVG/1.1/DTD/svg11.dtd">
<svg version="1.1" id="Layer_1" xmlns="http://www.w3.org/2000/svg" xmlns:xlink="http://www.w3.org/1999/xlink" x="0px" y="0px"
	 width="1499.813px" height="333.708px" viewBox="0 0 1499.813 333.708" enable-background="new 0 0 1499.813 333.708"
	 xml:space="preserve">
<path fill-rule="evenodd" clip-rule="evenodd" fill="#EE2747" d="M217.973,0.091v102.777L115.258,0.091H217.973z"/>
<path fill-rule="evenodd" clip-rule="evenodd" fill="#EE2747" d="M218.063,333.618H115.349L0,218.198V115.329L218.063,333.618z"/>
<path fill-rule="evenodd" clip-rule="evenodd" fill="#EE2747" d="M283.692,0.091l0.273,260.854l72.627,72.672l-0.273-260.854
	L283.692,0.091z"/>
<path fill-rule="evenodd" clip-rule="evenodd" fill="#EE2747" d="M554.476,0.091L481.94,72.672l-0.091,188.274l72.627,72.672V0.091z
	"/>
<path fill-rule="evenodd" clip-rule="evenodd" fill="#EE2747" d="M641.738,0.091v333.526l72.537-72.581l0.091-188.273L641.738,0.091
	z"/>
<path fill-rule="evenodd" clip-rule="evenodd" fill="#EE2747" d="M705.094,0.091h333.322l-72.627,72.672L777.63,72.672
	L705.094,0.091z"/>
<path fill-rule="evenodd" clip-rule="evenodd" fill="#EE2747" d="M989.967,115.329v102.777L1207.849,0.091h-102.714L989.967,115.329
	z"/>
<path fill-rule="evenodd" clip-rule="evenodd" fill="#EE2747" d="M1105.316,333.618l102.805-102.869v102.869H1105.316z"/>
<path fill-rule="evenodd" clip-rule="evenodd" fill="#EE2747" d="M1339.833,0.091v333.526l-72.627-72.672l0.091-188.274
	L1339.833,0.091z"/>
<path fill-rule="evenodd" clip-rule="evenodd" fill="#EE2747" d="M1427.186,0.091v333.526l72.627-72.672V72.763L1427.186,0.091z"/>
<path fill-rule="evenodd" clip-rule="evenodd" fill="#A81D3A" d="M115.258,0.091l51.357,51.298L51.357,166.627L0.091,115.329
	L115.258,0.091z"/>
<path fill-rule="evenodd" clip-rule="evenodd" fill="#A81D3A" d="M166.706,282.138l51.357-51.389v102.869l-51.448-51.389
	L166.706,282.138z"/>
<path fill-rule="evenodd" clip-rule="evenodd" fill="#A81D3A" d="M418.312,260.946h-61.72v72.672h134.347L418.312,260.946z"/>
<path fill-rule="evenodd" clip-rule="evenodd" fill="#A81D3A" d="M554.476,160.624v57.301h87.171v-57.301H554.476z"/>
<path fill-rule="evenodd" clip-rule="evenodd" fill="#A81D3A" d="M554.476,0.091l0.091,72.763h87.171V0.091H554.476z"/>
<path fill-rule="evenodd" clip-rule="evenodd" fill="#A81D3A" d="M835.35,72.672h72.627l0.091,260.946l-72.627-72.672L835.35,72.672
	z"/>
<path fill-rule="evenodd" clip-rule="evenodd" fill="#A81D3A" d="M1339.833,138.522v63.576h87.353v-63.576H1339.833z"/>
<path fill-rule="evenodd" clip-rule="evenodd" fill="#A81D3A" d="M1207.849,0.091v102.777l-51.267-51.298L1207.849,0.091z"/>
<path fill-rule="evenodd" clip-rule="evenodd" fill="#A81D3A" d="M989.967,218.106l115.258,115.511l51.448-51.389l-115.35-115.42
	L989.967,218.106z"/>
</svg>
